<svg xmlns="http://www.w3.org/2000/svg" width="10" height="10" viewBox="0 0 10 10">
  <g id="Group_3" data-name="Group 3" transform="translate(-682 -389)">
    <path id="Exclusion_2" data-name="Exclusion 2" d="M8,10H2A2,2,0,0,1,0,8V2A2,2,0,0,1,2,0H8a2,2,0,0,1,2,2V8A2,2,0,0,1,8,10ZM1.8,7.353,1.8,8.56h.7v-1.2L2.227,7.35V6.25L5,3.885,3.714,8.56H3.9L6.208,7.366,6.533,8.56h.129L5.27,3.646l.807-.729h0l.076.06c.163.13.556.444.871.7s1.037.721,1.437.976l.024.016,0,3.893h.084L8.565,4.678a1.833,1.833,0,0,0-.178-.586A3.76,3.76,0,0,0,8,3.442a5.8,5.8,0,0,0-.722-.814,8.25,8.25,0,0,0-1-.756,3.049,3.049,0,0,0-.843-.454H5.411a.33.33,0,0,0-.234.093.284.284,0,0,0-.074.278,3.591,3.591,0,0,0,.684.865c-.168.167-4.317,3.78-4.358,3.816l.27.237.374-.288.008.937Zm2.045,1.11v0l.585-2.094,1.744.894-2.328,1.2ZM6.12,7.1h0L4.464,6.274l1.245-.616L6.119,7.1ZM4.477,6.154v0L5.157,3.71l.536,1.836L4.48,6.153Z" transform="translate(682 389)"/>
  </g>
</svg>
