<svg xmlns="http://www.w3.org/2000/svg" width="140" height="140" viewBox="0 0 140 140">
  <g id="Group_2" data-name="Group 2" transform="translate(-525 -168)">
    <path id="Exclusion_2" data-name="Exclusion 2" d="M123,140H17A17,17,0,0,1,0,123V17A17,17,0,0,1,17,0H123a17,17,0,0,1,17,17V123a17,17,0,0,1-17,17ZM86.912,103.122h0l4.546,16.72h1.8l-19.48-68.8,11.31-10.222.387.309c6.543,5.23,10.6,8.493,12.858,10.31,5.562,4.482,20.323,13.8,20.471,13.89l.012.006.007,54.507H120L119.919,65.5a26.108,26.108,0,0,0-2.494-8.213,53.407,53.407,0,0,0-5.363-9.1A81.554,81.554,0,0,0,101.957,36.8,115.053,115.053,0,0,0,88.03,26.217C82.224,22.371,77.808,20,76.217,19.864c-.151-.013-.308-.02-.464-.02a4.546,4.546,0,0,0-3.27,1.3,3.969,3.969,0,0,0-1.044,3.894c1.076,3.657,9.262,11.789,9.61,12.133l.007.006C78.655,39.485,20.58,90.065,20,90.57l3.781,3.309L29,89.849l.122,13.126-3.945-.036.079,16.9h9.825V102.976l-3.9-.073V87.512L70.021,54.391,52,119.843h2.531l32.376-16.721ZM53.807,118.478v0l8.2-29.345,24.414,12.515L53.809,118.477ZM85.681,99.417h0L62.5,87.836,79.926,79.2l5.754,20.21Zm-23-13.254v0L72.2,51.944l7.5,25.7L62.685,86.161Z" transform="translate(525 168)"/>
  </g>
</svg>
